<?xml version="1.0" encoding="UTF-8"?>
<svg xmlns="http://www.w3.org/2000/svg" viewBox="0 0 1212.24 426.42">
  <g id="Layer_1_copy" data-name="Layer 1 copy">
    <path d="M817.84,312.9c.48-1.3.84-2.19,1.15-3.09,8.46-24.48,17.25-48.84,27.6-72.6,4.49-10.31,9.21-20.53,15.18-30.09,1.81-2.89,3.84-5.67,6.01-8.29,1.3-1.56,2.95-2.93,4.68-4.02,2.57-1.62,5.22-1.09,6.81,1.47,1.26,2.03,2.23,4.32,2.89,6.62,1.88,6.53,2.4,13.28,2.64,20.02.67,18.64.24,37.28-1.12,55.87-.96,13.19-2.35,26.36-5.84,39.18-1.04,3.81-2.29,7.59-3.87,11.2-1.25,2.85-2.9,5.62-4.81,8.08-4.37,5.62-10.05,7.17-16.83,5.04-3.92-1.23-7.37-3.32-10.64-5.73-8.03-5.91-14.74-13.2-21.32-20.61-.6-.67-1.19-1.35-1.8-2.01-.11-.12-.31-.17-.67-.37-.37,1.03-.76,2.02-1.09,3.03-4.08,12.2-8.16,24.39-13.5,36.12-3.81,8.37-7.94,16.58-13.85,23.7-2.45,2.95-5.23,5.74-8.26,8.09-6.93,5.38-14.69,6.37-22.93,3.35-6.62-2.42-12.18-6.53-17.39-11.16-8.38-7.46-15.55-16-22.35-24.88-13.76-17.96-25.92-37-37.73-56.26-6.96-11.35-13.77-22.8-20.56-34.26-4.73-7.99-8.92-16.25-11.15-25.35-1.08-4.38-1.72-8.8-1.01-13.36,1.11-7.05,5-11.78,11.54-14.42,3.28-1.32,6.71-1.98,10.24-2.15,12.47-.63,24.3,2.34,35.77,6.8,28.09,10.93,52.44,27.27,71.78,50.61,11.03,13.31,21.82,26.81,32.74,40.21,2.44,2.99,4.93,5.93,7.7,9.25Z" style="fill: #fff; stroke-width: 0px;"/>
    <path d="M1197.66,350.81c-10.08-27.27-20.18-54.58-30.31-81.98h-230.06c10.13,27.37,20.21,54.61,30.38,82.1h-10.94c-8.39-22.61-16.81-45.32-25.23-68.02-.18,0-.35,0-.53,0-4.17,11.22-8.33,22.45-12.62,34h22.66c1.1,3.44,2.15,6.74,3.35,10.51-5.26.13-10.16.04-15.06.06-4.86.01-9.72,0-14.84,0-2.91,7.75-5.81,15.46-8.83,23.5-3.38.22-6.85.05-10.32.09.06-2.16,29.78-83.16,32.51-88.74h248c10.85,29.32,21.75,58.78,32.74,88.48h-10.89Z" style="fill: #fff; stroke-width: 0px;"/>
    <path d="M1087.52,272.56h11.09c9.61,25.99,19.23,51.99,28.94,78.22h-10.84c-10.04-25.78-19.1-52.06-29.19-78.22Z" style="fill: #fff; stroke-width: 0px;"/>
    <path d="M1044.13,350.78h-10.94c-9.58-25.91-19.2-51.92-28.91-78.16h10.93c9.58,25.89,19.19,51.88,28.91,78.16Z" style="fill: #fff; stroke-width: 0px;"/>
    <rect x="1161.72" y="339.1" width="13.13" height="11.08" style="fill: #fff; stroke-width: 0px;"/>
    <text transform="translate(925.39 252.45)" style="fill: #fff; font-size: 28px; letter-spacing: .1em;"><tspan x="0" y="0" style="font-family: AIGDT, AIGDT;">SMART</tspan><tspan x="113.26" y="0" style="font-family: Gotham-Medium, Gotham; font-weight: 500;">-</tspan></text>
    <text transform="translate(811.71 378.11)" style="fill: #fff; font-family: Gotham-Medium, Gotham; font-size: 12px; font-weight: 500;"><tspan x="0" y="0" xml:space="preserve">           Raspberry Pi–Powered Web Application for Smart Home     	</tspan><tspan x="0" y="14.4">Appliance Monitoring and Automated Response Using Machine </tspan><tspan x="0" y="28.8">Learning Detects Anomalies for Energy Efficiency.</tspan></text>
  </g>
  <g id="Layer_1" data-name="Layer 1">
    <path d="M170.07,119.01c.48-1.3.84-2.19,1.15-3.09,8.46-24.48,17.25-48.84,27.6-72.6,4.49-10.31,9.21-20.53,15.18-30.09,1.81-2.89,3.84-5.67,6.01-8.29,1.3-1.56,2.95-2.93,4.68-4.02,2.57-1.62,5.22-1.09,6.81,1.47,1.26,2.03,2.23,4.32,2.89,6.62,1.88,6.53,2.4,13.28,2.64,20.02.67,18.64.24,37.28-1.12,55.87-.96,13.19-2.35,26.36-5.84,39.18-1.04,3.81-2.29,7.59-3.87,11.2-1.25,2.85-2.9,5.62-4.81,8.08-4.37,5.62-10.05,7.17-16.83,5.04-3.92-1.23-7.37-3.32-10.64-5.73-8.03-5.91-14.74-13.2-21.32-20.61-.6-.67-1.19-1.35-1.8-2.01-.11-.12-.31-.17-.67-.37-.37,1.03-.76,2.02-1.09,3.03-4.08,12.2-8.16,24.39-13.5,36.12-3.81,8.37-7.94,16.58-13.85,23.7-2.45,2.95-5.23,5.74-8.26,8.09-6.93,5.38-14.69,6.37-22.93,3.35-6.62-2.42-12.18-6.53-17.39-11.16-8.38-7.46-15.55-16-22.35-24.88-13.76-17.96-25.92-37-37.73-56.26-6.96-11.35-13.77-22.8-20.56-34.26-4.73-7.99-8.92-16.25-11.15-25.35C.23,37.69-.41,33.27.3,28.72c1.11-7.05,5-11.78,11.54-14.42,3.28-1.32,6.71-1.98,10.24-2.15,12.47-.63,24.3,2.34,35.77,6.8,28.09,10.93,52.44,27.27,71.78,50.61,11.03,13.31,21.82,26.81,32.74,40.21,2.44,2.99,4.93,5.93,7.7,9.25Z" style="fill: #231f20; stroke-width: 0px;"/>
    <path d="M549.89,156.91c-10.08-27.27-20.18-54.58-30.31-81.98h-230.06c10.13,27.37,20.21,54.61,30.38,82.1h-10.94c-8.39-22.61-16.81-45.32-25.23-68.02-.18,0-.35,0-.53,0-4.17,11.22-8.33,22.45-12.62,34h22.66c1.1,3.44,2.15,6.74,3.35,10.51-5.26.13-10.16.04-15.06.06-4.86.01-9.72,0-14.84,0-2.91,7.75-5.81,15.46-8.83,23.5-3.38.22-6.85.05-10.32.09.06-2.16,29.78-83.16,32.51-88.74h248c10.85,29.32,21.75,58.78,32.74,88.48h-10.89Z" style="fill: #231f20; stroke-width: 0px;"/>
    <path d="M439.75,78.66h11.09c9.61,25.99,19.23,51.99,28.94,78.22h-10.84c-10.04-25.78-19.1-52.06-29.19-78.22Z" style="fill: #231f20; stroke-width: 0px;"/>
    <path d="M396.36,156.88h-10.94c-9.58-25.91-19.2-51.92-28.91-78.16h10.93c9.58,25.89,19.19,51.88,28.91,78.16Z" style="fill: #231f20; stroke-width: 0px;"/>
    <rect x="513.95" y="145.21" width="13.13" height="11.08" style="fill: #231f20; stroke-width: 0px;"/>
    <text transform="translate(277.61 58.55)" style="fill: #231f20; font-size: 28px; letter-spacing: .1em;"><tspan x="0" y="0" style="font-family: AIGDT, AIGDT;">SMART</tspan><tspan x="113.26" y="0" style="font-family: Gotham-Medium, Gotham; font-weight: 500;">-</tspan></text>
    <text transform="translate(163.94 184.22)" style="fill: #231f20; font-family: Gotham-Medium, Gotham; font-size: 12px; font-weight: 500;"><tspan x="0" y="0" xml:space="preserve">           Raspberry Pi–Powered Web Application for Smart Home     	</tspan><tspan x="0" y="14.4">Appliance Monitoring and Automated Response Using Machine </tspan><tspan x="0" y="28.8">Learning Detects Anomalies for Energy Efficiency.</tspan></text>
  </g>
</svg>