<?xml version="1.0" encoding="UTF-8"?>
<svg id="Layer_2" data-name="Layer 2" xmlns="http://www.w3.org/2000/svg" viewBox="0 0 237.34 195.66">
  <g id="Layer_1-2" data-name="Layer 1">
    <path d="M170.07,119.01c.48-1.3.84-2.19,1.15-3.09,8.46-24.48,17.25-48.84,27.6-72.6,4.49-10.31,9.21-20.53,15.18-30.09,1.81-2.89,3.84-5.67,6.01-8.29,1.3-1.56,2.95-2.93,4.68-4.02,2.57-1.62,5.22-1.09,6.81,1.47,1.26,2.03,2.23,4.32,2.89,6.62,1.88,6.53,2.4,13.28,2.64,20.02.67,18.64.24,37.28-1.12,55.87-.96,13.19-2.35,26.36-5.84,39.18-1.04,3.81-2.29,7.59-3.87,11.2-1.25,2.85-2.9,5.62-4.81,8.08-4.37,5.62-10.05,7.17-16.83,5.04-3.92-1.23-7.37-3.32-10.64-5.73-8.03-5.91-14.74-13.2-21.32-20.61-.6-.67-1.19-1.35-1.8-2.01-.11-.12-.31-.17-.67-.37-.37,1.03-.76,2.02-1.09,3.03-4.08,12.2-8.16,24.39-13.5,36.12-3.81,8.37-7.94,16.58-13.85,23.7-2.45,2.95-5.23,5.74-8.26,8.09-6.93,5.38-14.69,6.37-22.93,3.35-6.62-2.42-12.18-6.53-17.39-11.16-8.38-7.46-15.55-16-22.35-24.88-13.76-17.96-25.92-37-37.73-56.26-6.96-11.35-13.77-22.8-20.56-34.26-4.73-7.99-8.92-16.25-11.15-25.35C.23,37.69-.41,33.27.3,28.72c1.11-7.05,5-11.78,11.54-14.42,3.28-1.32,6.71-1.98,10.24-2.15,12.47-.63,24.3,2.34,35.77,6.8,28.09,10.93,52.44,27.27,71.78,50.61,11.03,13.31,21.82,26.81,32.74,40.21,2.44,2.99,4.93,5.93,7.7,9.25Z" style="fill: #231f20; stroke-width: 0px;"/>
  </g>
</svg>